<?xml version="1.0" encoding="utf-8"?>
<!-- Generated by IcoMoon.io -->
<!DOCTYPE svg PUBLIC "-//W3C//DTD SVG 1.1//EN" "http://www.w3.org/Graphics/SVG/1.1/DTD/svg11.dtd">
<svg version="1.1" xmlns="http://www.w3.org/2000/svg" xmlns:xlink="http://www.w3.org/1999/xlink" width="752" height="32" viewBox="0 0 752 32">
<svg id="icon-gplus" width="32" height="32" viewBox="0 0 32 32" x="0" y="0">
<path d="M15.448 24.24c-0.467-0.507-0.967-1-1.5-1.479s-1.033-0.892-1.5-1.24c-0.467-0.347-0.852-0.725-1.156-1.136-0.305-0.409-0.459-0.823-0.459-1.24 0-0.5 0.159-0.972 0.479-1.417 0.319-0.445 0.708-0.871 1.167-1.281 0.459-0.409 0.915-0.857 1.364-1.344 0.451-0.485 0.837-1.133 1.156-1.937 0.32-0.805 0.479-1.715 0.479-2.729 0-1.013-0.184-2.024-0.552-3.031-0.367-1.007-0.892-1.829-1.573-2.469-0.081-0.081-0.177-0.157-0.289-0.228-0.112-0.069-0.199-0.121-0.26-0.156-0.063-0.033-0.133-0.1-0.208-0.197-0.076-0.097-0.151-0.216-0.22-0.355h2.812l2.813-1.333h-9.104c-1.917 0-3.615 0.268-5.093 0.803s-2.748 1.461-3.803 2.781v9.708c1.429 1.639 3.325 2.459 5.688 2.459 0.444 0 0.929-0.035 1.459-0.104-0.292 0.848-0.437 1.444-0.437 1.792 0 0.929 0.437 1.965 1.312 3.104-3.251 0.096-5.925 0.685-8.021 1.769v3.304c0-0.435 0.473-0.888 0.797-1.261 1.315-1.516 3.293-2.157 5.224-2.417 0.721-0.097 1.467-0.145 2.229-0.145 0.445 0 0.785 0.013 1.021 0.041 0.084 0.056 0.295 0.2 0.636 0.437 0.34 0.236 0.568 0.396 0.685 0.48s0.333 0.244 0.645 0.479 0.533 0.415 0.667 0.531c0.133 0.119 0.323 0.296 0.573 0.531s0.435 0.441 0.552 0.615 0.263 0.385 0.437 0.636 0.295 0.489 0.364 0.719c0.069 0.229 0.136 0.479 0.197 0.751s0.093 0.552 0.093 0.844c0 0.528-0.071 1.479-0.208 1.479h2.333c0.541-1.333 0.812-2.104 0.812-3.271 0-0.917-0.153-1.767-0.459-2.552-0.303-0.785-0.688-1.431-1.153-1.937zM7.792 17.167c-0.708 0-1.383-0.18-2.021-0.541s-1.181-0.831-1.625-1.407c-0.445-0.576-0.833-1.225-1.167-1.948-0.333-0.721-0.58-1.445-0.739-2.167-0.159-0.723-0.24-1.409-0.24-2.063 0-1.333 0.357-2.479 1.073-3.437 0.715-0.959 1.719-1.437 3.011-1.437 0.917 0 1.743 0.284 2.479 0.855 0.736 0.569 1.319 1.292 1.751 2.167 0.429 0.875 0.756 1.779 0.979 2.708 0.221 0.929 0.333 1.819 0.333 2.667 0 1.388-0.303 2.503-0.907 3.344-0.604 0.84-1.58 1.26-2.927 1.26z"></path>
<path d="M26.667 2.667h-2.667v5.333h-5.333v2.667h5.333v5.333h2.667v-5.333h5.333v-2.667h-5.333z"></path>
</svg>
<svg id="icon-menu" width="32" height="32" viewBox="0 0 32 32" x="48" y="0">
<path d="M0 26.667h32v-3.556h-32v3.556zM0 17.779h32v-3.556h-32v3.556zM0 5.333v3.556h32v-3.556h-32z"></path>
</svg>
<svg id="icon-racoon-negative" width="32" height="32" viewBox="0 0 32 32" x="96" y="0">
<path d="M20.033 18.141c0 0.445-0.361 0.807-0.807 0.807s-0.807-0.361-0.807-0.807c0-0.445 0.361-0.807 0.807-0.807s0.807 0.361 0.807 0.807z"></path>
<path d="M24.565 9.813c0.14-0.172 0.396-0.196 0.568-0.055s0.196 0.395 0.057 0.567c-0.035 0.043-0.716 0.924 0.015 1.929 0 0.001 0.001 0.003 0.003 0.004 0.337 0.483 0.671 0.963 0.98 1.449 1.431-1.896 2.113-3.759 1.869-5.128-0.097-0.559-0.343-0.988-0.692-1.208-0.631-0.399-2.031 0.159-3.84 1.528-1.5 1.133-2.783 2.437-2.795 2.449-0.157 0.159-0.413 0.161-0.572 0.004-0.159-0.155-0.163-0.411-0.007-0.569 0.016-0.017 0.143-0.147 0.357-0.353-1.4-0.508-2.916-0.765-4.513-0.765-1.596 0-3.109 0.257-4.511 0.765 0.213 0.205 0.344 0.336 0.36 0.353 0.157 0.16 0.153 0.416-0.004 0.571-0.16 0.157-0.417 0.153-0.571-0.004-0.013-0.013-1.297-1.317-2.795-2.449-1.812-1.371-3.212-1.928-3.841-1.529-0.348 0.221-0.596 0.649-0.692 1.209-0.241 1.368 0.44 3.228 1.868 5.125 0.309-0.487 0.64-0.968 0.979-1.447 0 0 0.003-0.003 0.003-0.004 0.733-1.009 0.043-1.893 0.013-1.929-0.14-0.173-0.115-0.427 0.055-0.568 0.173-0.143 0.429-0.117 0.569 0.055 0.391 0.475 0.897 1.697 0.019 2.915-1.451 2.055-2.751 4.111-2.751 6.627 0 1.644 0.917 3.152 2.727 4.477 1.328 0.973 2.86 1.644 4.085 2.077-0.237-0.404-0.357-0.843-0.357-1.307 0-0.14 0.008-0.299 0.023-0.467 0.017-0.181 0.040-0.376 0.073-0.579-0.447 0.285-0.965 0.439-1.507 0.439-0.755 0-1.464-0.295-1.999-0.828-0.532-0.535-0.827-1.243-0.827-1.997 0-0.753 0.295-1.465 0.827-1.999l3.028-3.028c0.533-0.532 1.243-0.828 1.999-0.828 0.753 0 1.463 0.295 1.996 0.828 0.647 0.645 0.94 1.569 0.789 2.469-0.008 0.040-0.020 0.080-0.037 0.115-0.1 0.289-0.432 1.093-1.18 1.843l-1.972 1.971c-0.151 0.349-0.26 0.787-0.328 1.205-0.049 0.309-0.076 0.609-0.076 0.856 0 1.047 1.124 1.737 1.896 2.132 0.704 0.359 0.809 0.565 2.143 0.645v-0.791c-1.333-0.161-2.221-0.992-2.221-1.988 0-0.573 0.177-1.023 0.705-1.297 0.404-0.212 0.895-0.317 1.564-0.317 0.671 0 1.188 0.105 1.589 0.317 0.527 0.275 0.593 0.724 0.593 1.297 0 0.996-0.899 1.827-2.232 1.988v0.791c1.333-0.081 1.437-0.287 2.141-0.647 0.772-0.395 1.792-1.084 1.792-2.132 0-0.1 0.048-0.207 0.037-0.32-0.039-0.549-0.147-1.239-0.365-1.741l-1.961-1.971c-0.696-0.697-1.044-1.515-1.164-1.828-0.023-0.037-0.036-0.084-0.044-0.129-0.151-0.9 0.145-1.823 0.789-2.469 0.535-0.532 1.244-0.828 1.997-0.828 0.755 0 1.467 0.295 2.001 0.828l3.025 3.028c0.533 0.533 0.831 1.245 0.831 1.999 0 0.755-0.297 1.463-0.831 1.997-0.532 0.533-1.243 0.828-1.997 0.828-0.54 0-1.059-0.153-1.507-0.439 0.064 0.385 0.095 0.752 0.095 1.044 0 0.025-0.135 0.924-0.356 1.307 1.227-0.432 2.756-1.103 4.085-2.077 1.808-1.325 2.727-2.833 2.725-4.477 0-2.517-1.3-4.572-2.749-6.627-0.876-1.215-0.369-2.437 0.021-2.912z"></path>
<path d="M16 0c-8.836 0-16 7.164-16 16 0 8.837 7.164 16 16 16s16-7.163 16-16c0-8.836-7.164-16-16-16zM25.048 24.483c-2.033 1.491-4.492 2.303-5.776 2.651-0.007 0-0.011 0.001-0.019 0.003-0.167 0.111-0.348 0.216-0.544 0.316-1.053 0.536-2.22 0.78-2.712 0.78s-1.66-0.244-2.715-0.78c-0.195-0.1-0.375-0.205-0.544-0.316-0.007-0.001-0.011-0.003-0.015-0.003-1.284-0.349-3.744-1.16-5.777-2.651-2.029-1.488-3.057-3.212-3.057-5.129 0-1.844 0.615-3.427 1.48-4.924-0.028-0.020-0.057-0.047-0.080-0.077-2.256-2.912-2.311-4.955-2.143-5.911 0.139-0.787 0.512-1.408 1.056-1.751 0.985-0.624 2.545-0.109 4.767 1.571 0.708 0.535 1.36 1.097 1.863 1.556 1.593-0.636 3.331-0.959 5.167-0.959s3.572 0.324 5.167 0.96c0.505-0.459 1.157-1.023 1.865-1.557 2.219-1.681 3.78-2.195 4.767-1.572 0.541 0.344 0.917 0.965 1.055 1.751 0.169 0.956 0.115 2.999-2.141 5.912-0.027 0.032-0.053 0.056-0.084 0.080 0.865 1.496 1.479 3.079 1.479 4.921 0 1.917-1.028 3.641-3.057 5.129z"></path>
<path d="M13.576 18.143c0 0.445-0.361 0.807-0.807 0.807s-0.807-0.361-0.807-0.807c0-0.445 0.361-0.807 0.807-0.807s0.807 0.361 0.807 0.807z"></path>
</svg>
<svg id="icon-racoon-positive" width="32" height="32" viewBox="0 0 32 32" x="144" y="0">
<path d="M25.609 14.66c2.024-2.615 2.073-4.445 1.921-5.304-0.124-0.705-0.461-1.263-0.947-1.571-0.885-0.559-2.285-0.099-4.277 1.409-0.636 0.481-1.22 0.987-1.673 1.397-1.431-0.571-2.988-0.861-4.636-0.861-1.647 0-3.204 0.291-4.635 0.86-0.451-0.411-1.035-0.916-1.671-1.396-1.992-1.508-3.392-1.969-4.276-1.409-0.487 0.307-0.823 0.865-0.947 1.571-0.152 0.859-0.103 2.689 1.921 5.304 0.020 0.028 0.045 0.051 0.072 0.069-0.776 1.343-1.328 2.763-1.328 4.417 0 1.72 0.923 3.267 2.744 4.601 1.824 1.339 4.029 2.065 5.183 2.379 0.004 0 0.008 0.001 0.013 0.003 0.152 0.099 0.315 0.193 0.489 0.283 0.945 0.481 1.993 0.7 2.435 0.7s1.488-0.219 2.433-0.7c0.176-0.089 0.339-0.184 0.488-0.283 0.007-0.001 0.011-0.003 0.016-0.003 1.152-0.313 3.359-1.040 5.183-2.379 1.82-1.335 2.743-2.881 2.743-4.601 0-1.652-0.549-3.073-1.325-4.415 0.025-0.021 0.049-0.043 0.073-0.072zM26.136 19.145c0.001 1.475-0.823 2.828-2.445 4.019-1.193 0.873-2.567 1.475-3.667 1.863 0.199-0.344 0.307-0.713 0.319-1.104 0-0.024 0.001-0.047 0.001-0.071 0-0.26-0.028-0.589-0.085-0.935 0.401 0.255 0.865 0.392 1.352 0.392 0.677 0 1.315-0.263 1.792-0.743 0.479-0.479 0.745-1.115 0.745-1.792s-0.265-1.315-0.745-1.793l-2.715-2.715c-0.479-0.477-1.116-0.743-1.793-0.743s-1.313 0.264-1.793 0.743c-0.577 0.58-0.843 1.408-0.707 2.215 0.007 0.041 0.023 0.083 0.041 0.116 0.107 0.281 0.425 1.013 1.051 1.639l1.769 1.768c0.196 0.451 0.316 1.069 0.352 1.561 0.008 0.101 0.011 0.197 0.011 0.287 0 0.94-0.824 1.56-1.517 1.915-0.633 0.323-1.305 0.507-1.741 0.581v-0.711c1.025-0.143 1.811-0.889 1.811-1.784 0-0.513-0.251-0.916-0.724-1.163-0.361-0.191-0.848-0.285-1.448-0.285s-1.087 0.095-1.448 0.285c-0.473 0.248-0.724 0.649-0.724 1.163 0 0.895 0.784 1.64 1.811 1.784v0.711c-0.435-0.075-1.109-0.257-1.743-0.581-0.692-0.355-1.517-0.973-1.517-1.915 0-0.22 0.023-0.488 0.067-0.767 0.060-0.376 0.16-0.768 0.296-1.081l1.769-1.768c0.671-0.671 0.968-1.393 1.059-1.653 0.016-0.029 0.027-0.065 0.033-0.101 0.136-0.807-0.128-1.636-0.707-2.215-0.479-0.477-1.115-0.743-1.792-0.743s-1.313 0.264-1.793 0.743l-2.716 2.716c-0.479 0.477-0.743 1.116-0.743 1.793s0.264 1.312 0.743 1.792c0.479 0.479 1.115 0.743 1.792 0.743 0.487 0 0.952-0.137 1.352-0.392-0.029 0.18-0.052 0.356-0.065 0.519-0.012 0.148-0.019 0.291-0.019 0.416 0 0.417 0.108 0.812 0.319 1.175-1.1-0.388-2.473-0.989-3.665-1.863-1.624-1.191-2.447-2.543-2.447-4.019 0-2.257 1.167-4.101 2.467-5.944 0.789-1.093 0.336-2.189-0.015-2.616-0.127-0.153-0.356-0.176-0.511-0.051-0.155 0.128-0.177 0.355-0.051 0.511 0.027 0.032 0.645 0.825-0.012 1.731 0 0.001-0.001 0.003-0.003 0.004-0.304 0.431-0.6 0.861-0.879 1.299-1.28-1.703-1.891-3.371-1.675-4.599 0.088-0.501 0.308-0.887 0.621-1.084 0.565-0.359 1.821 0.141 3.447 1.371 1.344 1.016 2.495 2.187 2.507 2.197 0.139 0.143 0.368 0.145 0.512 0.004 0.141-0.139 0.144-0.368 0.005-0.511-0.015-0.016-0.131-0.133-0.323-0.317 1.256-0.455 2.615-0.687 4.047-0.687 1.433 0 2.792 0.231 4.049 0.687-0.192 0.185-0.305 0.301-0.32 0.317-0.14 0.143-0.137 0.372 0.005 0.511 0.143 0.14 0.371 0.139 0.513-0.004 0.011-0.012 1.161-1.181 2.507-2.197 1.624-1.228 2.88-1.728 3.445-1.371 0.312 0.197 0.532 0.583 0.621 1.084 0.217 1.228-0.395 2.899-1.679 4.601-0.277-0.437-0.577-0.868-0.879-1.301-0.001 0-0.003-0.003-0.003-0.004-0.655-0.901-0.044-1.693-0.013-1.731 0.125-0.155 0.103-0.381-0.052-0.508-0.153-0.127-0.383-0.105-0.509 0.049-0.351 0.427-0.805 1.523-0.015 2.613 1.299 1.843 2.465 3.687 2.465 5.944zM19.619 18.060c0 0.4-0.324 0.723-0.725 0.723-0.399 0-0.723-0.323-0.723-0.723 0-0.401 0.324-0.724 0.723-0.724 0.401 0 0.725 0.323 0.725 0.724zM12.377 18.060c0-0.401 0.325-0.724 0.724-0.724s0.724 0.323 0.724 0.724c0 0.4-0.325 0.723-0.724 0.723s-0.724-0.323-0.724-0.723z"></path>
<path d="M16 2c7.72 0 14 6.28 14 14s-6.28 14-14 14c-7.72 0-14-6.28-14-14s6.28-14 14-14zM16 0c-8.836 0-16 7.164-16 16 0 8.837 7.164 16 16 16s16-7.163 16-16c0-8.836-7.164-16-16-16v0z"></path>
</svg>
<svg id="icon-tag" width="32" height="32" viewBox="0 0 32 32" x="192" y="0">
<path d="M31.133 31.135c0.563-0.561 0.873-1.324 0.867-2.119l-0.084-9.587c-0.007-0.776-0.317-1.519-0.867-2.067l-16.496-16.496c-1.155-1.156-3.028-1.156-4.184 0l-9.503 9.503c-1.156 1.155-1.156 3.028 0 4.183l16.495 16.497c0.548 0.548 1.291 0.86 2.067 0.865l9.588 0.085c0.792 0.007 1.557-0.305 2.117-0.865zM19.676 26.353c-1.847-1.845-1.847-4.835-0.003-6.68 1.845-1.845 4.836-1.845 6.681 0 1.844 1.845 1.844 4.835 0 6.68-1.845 1.844-4.836 1.844-6.679 0z"></path>
</svg>
<svg id="icon-twitter" width="32" height="32" viewBox="0 0 32 32" x="240" y="0">
<path d="M30.388 6.907c-0.873 0.387-1.791 0.665-2.737 0.829 1.004-0.755 1.751-1.801 2.135-3 0.020-0.057 0-0.12-0.047-0.157-0.045-0.037-0.112-0.043-0.164-0.012-1.131 0.671-2.355 1.143-3.64 1.405-1.139-1.181-2.731-1.859-4.376-1.859-3.349 0-6.073 2.724-6.073 6.073 0 0.405 0.039 0.805 0.117 1.196-4.639-0.285-8.977-2.513-11.927-6.129-0.029-0.039-0.075-0.059-0.123-0.053-0.048 0.003-0.091 0.031-0.113 0.071-0.539 0.923-0.824 1.98-0.824 3.055 0 1.861 0.847 3.603 2.287 4.751-0.74-0.089-1.465-0.324-2.119-0.687-0.044-0.025-0.049-0.024-0.093 0.001s-0.024 0.072-0.024 0.123v0.079c0 2.673 1.713 5.020 4.22 5.8-0.661 0.108-1.369 0.099-2.043-0.028-0.051-0.008-0.115 0.008-0.148 0.045-0.033 0.039-0.052 0.092-0.036 0.14 0.752 2.347 2.839 3.992 5.269 4.196-2.028 1.485-4.427 2.269-6.959 2.269-0.468 0-0.937-0.028-1.399-0.084-0.065-0.007-0.132 0.032-0.155 0.096-0.023 0.063 0.001 0.135 0.059 0.171 2.741 1.756 5.909 2.687 9.165 2.687 10.649 0 17.011-8.648 17.011-17.012 0-0.233-0.004-0.464-0.013-0.695 1.148-0.84 2.135-1.868 2.928-3.059 0.037-0.053 0.033-0.124-0.008-0.173-0.043-0.049-0.112-0.065-0.171-0.039z"></path>
</svg>
<svg id="icon-vk" width="32" height="32" viewBox="0 0 32 32" x="288" y="0">
<path d="M18.851 18.273c-0.867-0.501-2.072-0.501-3.051-0.501h-3.216v6.627h2.951c1.092 0 2.487 0.077 3.428-0.584 0.863-0.583 1.353-1.727 1.353-2.812 0-1.012-0.6-2.221-1.465-2.729zM17.639 12.619c0.716-0.545 1.088-1.517 1.088-2.411 0-0.972-0.451-1.905-1.277-2.409-0.867-0.505-2.448-0.389-3.465-0.389h-1.4v5.832h1.853c1.055-0.001 2.297 0.077 3.201-0.623zM17.403 29.333h-11.048v-26.667h12.073c3.495 0 6.721 2.225 6.721 6.152 0 3.031-1.695 5.108-3.852 5.752v0.079c3.199 0.661 5.487 2.399 5.487 6.595 0.001 3.881-2.643 8.089-9.381 8.089z"></path>
</svg>
<svg id="icon-yaru" width="32" height="32" viewBox="0 0 32 32" x="336" y="0">
<path d="M13.209 19.673c-0.707-0.317-1.416-0.544-2.025-0.928-2.020-1.272-2.921-4.115-2.176-6.669 0.648-2.147 2.209-3.409 4.352-3.443 1.479-0.024 2.957-0.001 4.439-0.003 2.417-0.005 3.985-1.509 4.097-3.945 0.033-0.795-0.016-1.591 0.025-2.383 0.032-0.611 0.421-0.952 1.019-0.969 0.603-0.017 1.057 0.335 1.052 0.923-0.012 1.417 0.060 2.875-0.241 4.243-0.592 2.693-2.54 4.141-5.809 4.584 0 0.308 0 0.631 0 0.949 0 5.697 0.001 11.396-0.003 17.091 0 1.088-0.369 1.461-1.405 1.453-0.956-0.007-1.349-0.381-1.353-1.34-0.009-2.273-0.003-4.547-0.003-6.82 0-0.219 0-0.435 0-0.652-0.047-0.021-0.092-0.040-0.137-0.061-0.115 0.216-0.239 0.428-0.341 0.651-1.088 2.3-2.168 4.601-3.259 6.901-0.549 1.16-1.713 1.668-2.944 1.287-0.591-0.181-0.564-0.595-0.341-1.043 0.611-1.223 1.237-2.44 1.855-3.661 0.787-1.561 2.477-4.764 3.2-6.164zM14.984 11.217c-1.815 0.156-2.703 0.041-3.36 1-0.792 1.153-0.571 2.473 0.192 3.645 0.584 0.897 1.609 1.084 3.187 1.163 0.028-2.501-0.019-3.069-0.019-5.808z"></path>
<path d="M18.644 4.465c0.005 1.723-1.404 3.104-3.151 3.093-1.74-0.009-3.14-1.405-3.131-3.121 0.008-1.656 1.42-3.047 3.116-3.071 1.716-0.023 3.164 1.393 3.165 3.099z"></path>
</svg>
<svg id="icon-arrow" width="32" height="32" viewBox="0 0 32 32" x="384" y="0">
<path d="M19.408 32v-19.515l8.053 8.053 4.539-4.539-16-16-16 16 4.539 4.539 8.053-8.053v19.515z"></path>
</svg>
<svg id="icon-clock" width="32" height="32" viewBox="0 0 32 32" x="432" y="0">
<path d="M27.793 16.077c0-0.815 0.66-1.473 1.473-1.473h1.4c-0.74-7.448-7.024-13.267-14.667-13.267-7.644 0-13.927 5.819-14.667 13.267h1.4c0.815 0 1.475 0.66 1.475 1.473s-0.66 1.475-1.475 1.475h-1.4c0.692 6.963 6.228 12.5 13.193 13.192v-1.339c0-0.812 0.661-1.472 1.473-1.472s1.473 0.66 1.473 1.472v1.339c6.964-0.692 12.5-6.228 13.193-13.192h-1.4c-0.815 0-1.473-0.661-1.473-1.475v0zM16.737 17.355c-1.485 0.86-5.944 3.433-5.944 3.433-0.704 0.405-1.607 0.164-2.013-0.54s-0.167-1.608 0.539-2.015l5.208-3.005v-10.944c0-0.813 0.661-1.473 1.473-1.473s1.473 0.661 1.473 1.473v11.793c0 0.545-0.296 1.021-0.736 1.277z"></path>
</svg>
<svg id="icon-facebook" width="32" height="32" viewBox="0 0 32 32" x="480" y="0">
<path d="M23.325 30.799v-13.617h4.972l0.203-4.892h-5.176v-3.588c0-0.679 0.116-1.215 0.345-1.609 0.232-0.395 0.78-0.577 1.649-0.551h3.059l0.123-4.565c-0.381-0.056-0.767-0.088-1.163-0.103-0.391-0.013-0.751-0.033-1.079-0.060-0.38-0.028-0.761-0.041-1.14-0.041-1.196-0.081-2.221 0.048-3.080 0.388-0.856 0.339-1.561 0.815-2.119 1.425-0.556 0.612-0.972 1.312-1.243 2.1-0.273 0.788-0.409 1.591-0.409 2.405v4.199h-3.505v4.892h3.505v13.616l5.057 0.001z"></path>
</svg>
<svg id="icon-footstep" width="32" height="32" viewBox="0 0 32 32" x="528" y="0">
<path d="M10.784 9.789c-0.7 1.461-1.153 3.021-0.868 4.624 0.237 1.343 0.797 2.628 1.177 3.951 0.379 1.313 0.795 2.631 1.040 3.972 0.395 2.176 0.535 4.411 1.024 6.564 0.711 3.137 2.924 3.772 5.817 2.453 0.74-0.34 1.085-0.977 1.255-1.74 0.264-1.187-0.079-2.279-0.628-3.283-0.917-1.677-1.904-3.321-2.919-4.944-0.744-1.192-1.211-2.453-1.247-3.853-0.025-0.835-0.008-1.672 0.011-2.513 0.001-0.127 0.016-1.279 0.303-1.561 0.465-0.461 1.197-0.715 2.192-0.713 0.471 0.012 2.431 0.004 2.853-0.235 2.739-1.544 1.995-5.36 0.305-6.528-2.005-1.38-4.157-1.272-6.279-0.428-1.952 0.779-3.151 2.395-4.037 4.235z"></path>
<path d="M21.784 3.945c0.891-1.527-0.579-3.939-2.332-3.945-0.807-0.007-1.040 0.175-1.181 1.004-0.24 1.417 0.328 2.601 1.169 3.671 0.172 0.22 0.533 0.347 0.825 0.409 0.905 0.188 1.212-0.616 1.519-1.139z"></path>
<path d="M17.651 2.285c0-0.153 0.016-0.315-0.003-0.468-0.071-0.579-0.833-1.395-1.347-1.413-0.721-0.027-1.036 0.528-1.173 1.071-0.137 0.541-0.132 1.149-0.040 1.704 0.085 0.511 0.495 0.813 1.064 0.813 0.931 0.009 1.531-0.665 1.499-1.707z"></path>
<path d="M14.935 4.344c0.205-0.692-0.355-1.724-1.056-1.931-0.375-0.113-0.993 0.289-1.127 0.84-0.097 0.413-0.097 0.871-0.043 1.296 0.061 0.52 0.389 0.833 0.92 0.795 0.611 0.003 1.129-0.401 1.305-1z"></path>
<path d="M9.705 6.8c-0.237 0.396-0.348 0.944-0.309 1.405 0.045 0.5 0.48 0.683 1 0.573 0.953-0.195 1.187-0.9 0.599-1.853 1.315 0.212 1.944-0.251 1.841-1.348-0.049-0.487-0.68-1.159-1.133-1.137-0.544 0.017-0.871 0.384-0.929 0.884-0.049 0.467 0.040 0.945 0.067 1.421-0.393-0.201-0.887-0.363-1.135 0.055z"></path>
</svg>
</svg>
